<svg width="1200" height="1400" viewBox="0 0 1200 1400" fill="none" xmlns="http://www.w3.org/2000/svg"><rect width="1200" height="1400" rx="72" fill="#FFF6F8"/><rect x="330" y="170" width="540" height="900" rx="270" fill="#FFFDFB"/><path d="M600 238V380" stroke="#D7B17A" stroke-width="26" stroke-linecap="round"/><path d="M510 358C510 308.294 550.294 268 600 268C649.706 268 690 308.294 690 358V392C690 441.706 649.706 482 600 482C550.294 482 510 441.706 510 392V358Z" stroke="#D7B17A" stroke-width="24"/><circle cx="600" cy="556" r="72" fill="#F4C5D6"/><circle cx="600" cy="664" r="58" fill="#F9D8E4"/><circle cx="600" cy="754" r="42" fill="#FFE5F0"/><circle cx="544" cy="846" r="40" fill="#F5D1DC"/><circle cx="656" cy="846" r="40" fill="#F5D1DC"/><path d="M544 846C571 838 586 846 600 888C616 846 630 838 656 846" stroke="#E29AB8" stroke-width="18" stroke-linecap="round"/><circle cx="600" cy="938" r="30" fill="#F7C2D9"/></svg>
